<?xml version="1.0" encoding="UTF-8"?><svg xmlns="http://www.w3.org/2000/svg" viewBox="0 0 1037.95 712.83"><defs><style>.aa{fill:#55ab32;}.ab{fill:#fff;}.ac{fill:#257f9e;}.ad{fill:#249fa3;}.ae{fill:#b45199;}.af{fill:#e62a2d;}.ag{fill:#284750;}.ah{fill:#020304;}.ai{fill:#d1c296;}.aj{fill:#ebebea;}.ak{fill:#6dc3bd;}.al{fill:#217632;}.am{fill:#1ba8d2;}.an{fill:#dcc5e1;}.ao{fill:#b4ad96;}.ap{fill:#36b8c0;}.aq{fill:#e9e20e;}</style></defs><g id="a"/><g id="b"><g id="c"><g><path class="aj" d="M931.12,457.03v94.96h100.93v-29.71h-71.22v-53.39h71.22v-11.87h-100.93Z"/><path class="aj" d="M1026.08,255.24h-65.26v-65.32h-29.7v94.96h100.93v-29.65h-5.96Z"/><path class="aj" d="M895.5,457.03h-47.48v5.91h5.91v5.96h5.96v5.91h5.91v35.61h-5.91v5.96h-5.96v5.91h-35.61v29.71h71.22v-5.96h5.96v-5.91h5.91v-77.19h-5.91v-5.91Z"/><path class="aj" d="M853.93,189.92v5.96h5.96v5.91h5.91v11.87h5.96v71.22h29.65v-94.96h-47.48Z"/><path class="aj" d="M830.19,213.66h5.96v-11.87h5.91v-5.91h5.96v-5.96h-41.57v94.96h23.74v-71.22Z"/><path class="aj" d="M693.71,457.03v94.96h29.65v-89.06h5.96v11.87h5.91v11.87h5.96v11.87h5.91v17.83h5.96v17.78h5.91v17.83h29.7v-94.96h-94.96Z"/><path class="aj" d="M693.71,267.11h5.91v5.91h5.96v5.96h5.91v5.91h53.45v-5.91h5.91v-5.96h5.96v-65.26h-17.83v41.52h-5.91v5.96h-29.7v-5.96h-5.91v-11.87h-5.96v-47.48h-23.74v71.22h5.96v5.96Z"/><path class="aj" d="M658.1,189.92h-35.61v94.96h35.61v-94.96Z"/><path class="aj" d="M616.53,457.03v5.91h5.96v5.96h5.91v11.87h5.96v71.22h29.65v-94.96h-47.48Z"/><path class="aj" d="M569.05,457.03v94.96h23.74v-71.22h5.96v-11.87h5.91v-5.96h5.96v-5.91h-41.57Z"/><path class="aj" d="M515.66,189.92v94.96h23.74v-94.96h-23.74Z"/><path class="aj" d="M462.22,457.03v94.96h23.74v-94.96h-23.74Z"/><path class="aj" d="M462.22,189.92v65.32h-5.91v5.91h-35.61v-5.91h-5.96v-65.32h-17.78v83.09h5.91v5.96h5.96v5.91h65.26v-5.91h5.96v-5.96h5.91v-83.09h-23.74Z"/><path class="aj" d="M420.7,522.28v-11.87h-5.96v-5.91h-5.91v-11.87h-5.96v-5.96h-5.91v-11.87h-5.96v-17.78h-35.61v17.78h-5.91v5.96h-5.96v11.87h-5.91v5.91h-5.96v11.87h-5.91v5.96h-5.96v11.87h-5.91v23.74h29.65v-5.96h5.96v-5.91h5.91v-5.96h5.96v-5.91h5.91v-5.96h5.96v5.96h5.91v5.91h5.96v5.96h5.91v5.91h5.96v5.96h35.61v-29.71h-11.87Z"/><path class="aj" d="M319.78,225.53v5.96h5.96v5.91h5.91v5.96h5.96v41.52h29.65v-71.22h-5.91v-11.87h-5.96v-5.91h-5.91v-5.96h-89.06v94.96h29.7v-89h5.91v17.78h5.96v5.96h5.91v5.91h11.87Z"/><path class="aj" d="M183.3,457.03v94.96h100.87v-29.71h-71.22v-53.39h71.22v-11.87h-100.87Z"/><path class="aj" d="M230.78,189.92h-47.48v94.96h47.48v-94.96Z"/></g><g><path class="ab" d="M1032.04,379.84v-35.61h-100.93v112.8h100.93v-23.74h-71.22v-53.45h71.22Z"/><path class="ab" d="M960.82,77.19h-29.7v112.74h29.7V77.19Z"/><path class="ab" d="M836.15,344.23v5.96h-5.96v5.91h-5.91v5.96h-5.96v77.13h5.96v5.96h5.91v5.91h5.96v5.96h53.39v-5.96h-5.91v-5.91h-11.87v-5.96h-5.96v-5.91h-5.91v-5.96h-5.96v-35.61h5.96v-5.91h41.52v-41.57h-65.26Z"/><path class="ab" d="M895.5,106.83h-5.96v-5.91h-5.91v-5.96h-5.96v-11.87h-5.91v-5.91h-35.61v5.91h-5.96v5.96h-5.91v11.87h-5.96v5.91h-5.91v5.96h-5.96v77.13h94.96V118.7h-5.91v-11.87Zm-23.74,65.32h-41.57v-29.71h5.96v-11.87h5.91v-11.87h5.96v-5.91h5.91v5.91h5.96v11.87h5.91v11.87h5.96v29.71Z"/><path class="ab" d="M758.97,344.23v94.96h-5.91v-11.87h-5.96v-11.87h-5.91v-11.87h-5.96v-17.78h-5.91v-17.83h-5.96v-23.74h-29.65v112.8h94.96v-112.8h-29.7Z"/><path class="ab" d="M711.49,130.57h5.96v-11.87h5.91v-5.91h5.96v-5.96h5.91v5.96h17.83v5.91h5.91v23.74h17.83v-47.48h-5.96v-5.91h-5.91v-5.96h-5.96v-5.91h-41.52v5.91h-5.96v5.96h-5.91v5.91h-5.96v5.96h-5.91v5.91h-5.96v83.09h23.74v-59.35Z"/><path class="ab" d="M658.1,77.19h-35.61v112.74h35.61V77.19Z"/><path class="ab" d="M658.1,373.94h-5.96v-5.96h-5.91v-5.91h-5.96v-11.87h-5.91v-5.96h-35.61v5.96h-5.96v5.91h-5.91v11.87h-5.96v5.96h-5.91v5.91h-5.96v77.19h94.96v-71.22h-5.91v-11.87Zm-23.74,65.26h-41.58v-29.65h5.96v-11.87h5.91v-11.87h5.96v-5.96h5.91v5.96h5.96v11.87h5.91v11.87h5.96v29.65Z"/><path class="ab" d="M575.01,178.05h5.91v-5.91h5.96v-11.87h5.91v-53.44h-5.91v-11.87h-5.96v-5.91h-5.91v-5.96h-11.87v-5.91h-47.48v112.74h47.48v-5.91h11.87v-5.96Zm-11.87-35.61h-5.96v5.96h-17.78v-35.61h17.78v5.91h5.96v23.74Z"/><path class="ab" d="M533.44,362.07h-5.91v-5.96h-5.96v-5.91h-11.87v-5.96h-47.48v112.8h53.45v-5.96h5.91v-5.91h5.96v-5.96h5.91v-11.87h5.96v-53.39h-5.96v-11.87Zm-23.74,47.48h-5.91v5.91h-17.83v-35.61h17.83v5.96h5.91v23.74Z"/><path class="ab" d="M462.22,112.8v77.13h23.74V94.96h-5.91v-5.91h-5.96v-5.96h-5.91v-5.91h-53.44v5.91h-5.91v5.96h-5.96v5.91h-5.91v94.96h17.78V112.8h5.96v-5.96h35.61v5.96h5.91Z"/><path class="ab" d="M396.96,344.23v11.87h-5.96v5.96h-5.91v5.91h-5.96v5.96h-5.91v5.91h-5.96v-5.91h-5.91v-5.96h-5.96v-5.91h-5.91v-5.96h-5.96v-11.87h-29.65v29.7h5.91v11.87h5.96v5.91h5.91v11.87h5.96v5.96h5.91v11.87h5.96v5.91h5.91v29.7h35.61v-29.7h5.96v-11.87h5.91v-5.91h5.96v-11.87h5.91v-5.96h5.96v-11.87h11.87v-35.61h-35.61Z"/><path class="ab" d="M260.43,77.19v112.74h71.22v-5.91h11.87v-5.96h5.96v-5.91h5.91v-5.96h5.96v-17.78h5.91v-41.57h-5.91v-17.78h-5.96v-5.96h-5.91v-5.91h-89.06Zm65.32,65.26h-5.96v5.96h-29.65v-35.61h29.65v5.91h5.96v23.74Z"/><path class="ab" d="M183.3,344.23v112.8h100.87v-23.74h-71.22v-53.45h71.22v-35.61h-100.87Z"/><path class="ab" d="M183.3,189.92h47.48V53.45h71.22V5.96H129.86V53.45h53.45V189.92Z"/></g><g><path d="M919.24,338.33v225.53h118.7v-47.48h-71.22v-41.57h71.22v-47.48h-71.22v-41.52h71.22v-47.48h-118.7Zm112.8,11.87v29.65h-71.22v53.45h71.22v35.61h-71.22v53.39h71.22v29.71h-100.93v-207.76h100.93v5.96Z"/><path d="M1032.04,249.27h-65.32V71.22h-47.48v225.53h118.7v-47.48h-5.91Zm0,11.87v23.74h-100.93V77.19h29.7V255.24h71.22v5.91Z"/><path d="M824.28,338.33v5.91h-5.96v5.96h-5.91v5.91h-5.96v89.06h5.96v5.91h5.91v5.96h5.96v5.91h11.87v5.96h5.91v5.91h5.96v5.96h5.91v23.74h-5.91v5.91h-41.57v53.45h83.09v-5.96h5.96v-5.91h5.91v-5.96h5.96v-89h-5.96v-5.96h-5.91v-5.91h-5.96v-5.96h-11.87v-5.91h-5.91v-5.96h-5.96v-5.91h-5.91v-23.74h5.91v-5.96h41.57v-53.39h-83.09Zm77.13,11.87v35.61h-41.52v5.91h-5.96v35.61h5.96v5.96h5.91v5.91h5.96v5.96h11.87v5.91h5.91v5.96h5.96v5.91h5.91v77.19h-5.91v5.91h-5.96v5.96h-71.22v-29.71h35.61v-5.91h5.96v-5.96h5.91v-35.61h-5.91v-5.91h-5.96v-5.96h-5.91v-5.91h-11.87v-5.96h-5.96v-5.91h-5.91v-5.96h-5.96v-77.13h5.96v-5.96h5.91v-5.91h5.96v-5.96h65.26v5.96Z"/><path d="M901.41,100.93h-5.91v-5.96h-5.96v-5.91h-5.91v-11.87h-5.96v-5.96h-53.39v5.96h-5.96v11.87h-5.91v5.91h-5.96v5.96h-5.91v11.87h-5.96v183.96h41.57v-77.13h5.91v-11.87h5.96v-5.96h5.91v5.96h5.96v11.87h5.91v77.13h41.57V112.8h-5.96v-11.87Zm0,23.74v160.22h-29.65v-71.22h-5.96v-11.87h-5.91v-5.91h-5.96v-5.96h-5.91v5.96h-5.96v5.91h-5.91v11.87h-5.96v71.22h-23.74V112.8h5.96v-5.96h5.91v-5.91h5.96v-11.87h5.91v-5.96h5.96v-5.91h35.61v5.91h5.91v11.87h5.96v5.96h5.91v5.91h5.96v11.87h5.91v5.96Z"/><path d="M865.8,136.54v-5.96h-5.91v-11.87h-5.96v-5.91h-5.91v5.91h-5.96v11.87h11.87v17.83h5.96v17.78h-23.74v-17.78h5.91v-17.83h-5.91v11.87h-5.96v29.71h41.57v-29.71h-5.96v-5.91Z"/><path d="M753.06,338.33v71.22h-5.96v-17.83h-5.91v-11.87h-5.96v-17.78h-5.91v-23.74h-47.48v225.53h47.48v-71.22h5.91v17.78h5.96v11.87h5.91v17.84h5.96v23.74h41.52v-225.53h-41.52Zm35.61,11.87v201.79h-29.7v-17.83h-5.91v-17.78h-5.96v-17.83h-5.91v-11.87h-5.96v-11.87h-5.91v-11.87h-5.96v89.06h-29.65v-207.76h29.65v23.74h5.96v17.83h5.91v17.78h5.96v11.87h5.91v11.87h5.96v11.87h5.91v-94.96h29.7v5.96Z"/><path d="M681.84,273.01h5.91v5.96h5.96v5.91h5.91v5.96h5.96v5.91h59.35v-5.91h5.91v-5.96h5.96v-5.91h5.91v-77.19h-35.61v41.58h-5.91v5.91h-11.87v-5.91h-5.96v-11.87h-5.91v-94.96h5.91v-11.87h5.96v-5.96h11.87v5.96h5.91v23.74h35.61v-59.35h-5.91v-5.96h-5.96v-5.91h-5.91v-5.96h-59.35v5.96h-5.96v5.91h-5.91v5.96h-5.96v5.91h-5.91v5.96h-5.96v166.18h5.96v5.91Zm5.91-166.18h5.96v-5.91h5.91v-5.96h5.96v-5.91h5.91v-5.96h5.96v-5.91h41.52v5.91h5.96v5.96h5.91v5.91h5.96v47.48h-17.83v-23.74h-5.91v-5.91h-17.83v-5.96h-5.91v5.96h-5.96v5.91h-5.91v11.87h-5.96v106.83h5.96v11.87h5.91v5.96h29.7v-5.96h5.91v-41.52h17.83v65.26h-5.96v5.96h-5.91v5.91h-53.45v-5.91h-5.91v-5.96h-5.96v-5.91h-5.91v-5.96h-5.96V106.83Z"/><path d="M664.01,71.22h-53.39v225.53h53.39V71.22Zm-5.91,11.87v201.79h-35.61V77.19h35.61v5.91Z"/><path d="M628.4,403.58v-5.91h-5.91v-11.87h-5.96v-5.96h-5.91v5.96h-5.96v11.87h11.87v17.78h5.96v17.83h-23.74v-17.83h5.91v-17.78h-5.91v11.87h-5.96v29.65h41.58v-29.65h-5.96v-5.96Z"/><path d="M664.01,367.97h-5.91v-5.91h-5.96v-5.96h-5.91v-11.87h-5.96v-5.91h-53.39v5.91h-5.96v11.87h-5.91v5.96h-5.96v5.91h-5.91v11.87h-5.96v184.02h41.57v-77.19h5.91v-11.87h5.96v-5.91h5.91v5.91h5.96v11.87h5.91v77.19h41.57v-184.02h-5.96v-11.87Zm0,23.74v160.28h-29.65v-71.22h-5.96v-11.87h-5.91v-5.96h-5.96v-5.91h-5.91v5.91h-5.96v5.96h-5.91v11.87h-5.96v71.22h-23.74v-172.15h5.96v-5.91h5.91v-5.96h5.96v-11.87h5.91v-5.91h5.96v-5.96h35.61v5.96h5.91v11.87h5.96v5.91h5.91v5.96h5.96v11.87h5.91v5.91Z"/><path d="M557.18,112.8h-17.78v35.61h17.78v-5.96h5.96v-23.74h-5.96v-5.91Zm-5.91,11.87v17.78h-5.96v-23.74h5.96v5.96Z"/><path d="M569.05,189.92h11.87v-5.91h5.96v-5.96h5.91v-11.87h5.96V100.93h-5.96v-11.87h-5.91v-5.96h-5.96v-5.91h-11.87v-5.96h-65.26v225.53h41.52v-100.87h23.74v-5.96Zm-5.91,0h-23.74v94.96h-23.74V77.19h47.48v5.91h11.87v5.96h5.91v5.91h5.96v11.87h5.91v53.44h-5.91v11.87h-5.96v5.91h-5.91v5.96h-11.87v5.91Z"/><path d="M503.79,379.84h-17.83v35.61h17.83v-5.91h5.91v-23.74h-5.91v-5.96Zm-5.96,29.71h-5.91v-23.74h5.91v23.74Z"/><path d="M539.4,356.1h-5.96v-5.91h-5.91v-5.96h-11.87v-5.91h-65.32v225.53h41.57v-100.93h23.74v-5.91h-29.71v94.96h-23.74v-207.76h47.48v5.96h11.87v5.91h5.96v5.96h5.91v11.87h5.96v53.39h-5.96v11.87h-5.91v5.96h-5.96v5.91h-5.91v5.96h11.87v-5.96h5.91v-5.91h5.96v-11.87h5.91v-65.32h-5.91v-11.87Z"/><path d="M420.7,261.14h35.61v-5.91h5.91V112.8h-5.91v-5.96h-35.61v5.96h-5.96V255.24h5.96v5.91Zm0-142.44h5.91v-5.91h17.83v5.91h5.91V249.27h-5.91v5.96h-17.83v-5.96h-5.91V118.7Z"/><path d="M391,284.88h5.96v5.96h5.91v5.91h71.22v-5.91h5.96v-5.96h5.91v-5.91h5.96V89.06h-5.96v-5.96h-5.91v-5.91h-5.96v-5.96h-71.22v5.96h-5.91v5.91h-5.96v5.96h-5.91v189.92h5.91v5.91Zm5.96-189.92h5.91v-5.91h5.96v-5.96h5.91v-5.91h53.44v5.91h5.91v5.96h5.96v5.91h5.91v178.05h-5.91v5.96h-5.96v5.91h-65.26v-5.91h-5.96v-5.96h-5.91V94.96Z"/><path d="M391,350.2h-5.91v5.91h-5.96v5.96h-5.91v5.91h-5.96v-5.91h-5.91v-5.96h-5.96v-5.91h-5.91v-11.87h-47.48v47.48h11.87v11.87h5.91v5.91h5.96v11.87h5.91v5.96h5.96v11.87h5.91v35.61h-5.91v11.87h-5.96v5.91h-5.91v11.87h-5.96v5.96h-5.91v11.87h-11.87v47.48h47.48v-11.87h5.91v-5.96h5.96v-5.91h5.91v-5.96h5.96v5.96h5.91v5.91h5.96v5.96h5.91v11.87h47.48v-47.48h-11.87v-11.87h-5.91v-5.96h-5.96v-11.87h-5.91v-5.91h-5.96v-11.87h-5.91v-35.61h5.91v-11.87h5.96v-5.96h5.91v-11.87h5.96v-5.91h5.91v-11.87h11.87v-47.48h-47.48v11.87Zm5.96-5.96h35.61v35.61h-11.87v11.87h-5.96v5.96h-5.91v11.87h-5.96v5.91h-5.91v11.87h-5.96v47.48h5.96v11.87h5.91v5.96h5.96v11.87h5.91v5.91h5.96v11.87h11.87v29.71h-35.61v-5.96h-5.96v-5.91h-5.91v-5.96h-5.96v-5.91h-5.91v-5.96h-5.96v5.96h-5.91v5.91h-5.96v5.96h-5.91v5.91h-5.96v5.96h-29.65v-23.74h5.91v-11.87h5.96v-5.96h5.91v-11.87h5.96v-5.91h5.91v-11.87h5.96v-5.96h5.91v-47.48h-5.91v-5.91h-5.96v-11.87h-5.91v-5.96h-5.96v-11.87h-5.91v-5.91h-5.96v-11.87h-5.91v-29.7h29.65v11.87h5.96v5.96h5.91v5.91h5.96v5.96h5.91v5.91h5.96v-5.91h5.91v-5.96h5.96v-5.91h5.91v-5.96h5.96v-11.87Z"/><path d="M319.78,142.44h5.96v-23.74h-5.96v-5.91h-29.65v35.61h29.65v-5.96Zm-5.91-5.91h-5.96v5.91h-11.87v-23.74h11.87v5.96h5.96v11.87Z"/><path d="M307.91,237.4h5.96v5.96h5.91v5.91h5.96v47.48h47.48v-89h-5.96v-11.87h-5.91v-5.96h-5.96v-11.87h5.96v-5.91h5.91v-17.84h5.96v-53.39h-5.96v-17.84h-5.91v-5.91h-5.96v-5.96h-106.83v225.53h47.48v-65.26h11.87v5.91Zm-5.91-17.78v-5.96h-5.96v-17.78h-5.91v89h-29.7V77.19h89.06v5.91h5.91v5.96h5.96v17.78h5.91v41.57h-5.91v17.78h-5.96v5.96h-5.91v5.91h-5.96v5.96h-11.87v5.91h17.83v5.96h5.91v5.91h5.96v11.87h5.91v71.22h-29.65v-41.52h-5.96v-5.96h-5.91v-5.91h-5.96v-5.96h-11.87v-5.91h-5.91Z"/><path d="M171.43,338.33v225.53h118.7v-47.48h-71.22v-41.57h71.22v-47.48h-71.22v-41.52h71.22v-47.48h-118.7Zm112.74,41.52h-71.22v53.45h71.22v35.61h-71.22v53.39h71.22v29.71h-100.87v-207.76h100.87v35.61Z"/><path d="M171.43,296.75h65.26V59.35h71.22V0H123.95V59.35h47.48v237.4ZM129.86,53.45V5.96h172.15V53.45h-71.22v231.44h-47.48V53.45h-53.45Z"/></g></g><g id="d"><rect class="af" x="147.63" y="83.27" width="5.96" height="5.96"/><rect class="af" x="147.63" y="178.53" width="5.96" height="5.96"/><rect class="aq" x="147.63" y="35.67" width="5.96" height="5.96"/><rect class="aq" x="147.63" y="130.93" width="5.96" height="5.96"/><rect class="ak" x="147.63" y="184.49" width="5.96" height="5.96"/><rect class="ak" x="141.67" y="178.53" width="5.96" height="5.96"/><rect class="ak" x="153.6" y="178.53" width="5.96" height="5.96"/><path class="aa" d="M153.6,113.03v17.89h5.96v-17.89h-5.96Z"/><rect class="ak" x="153.6" y="83.27" width="5.96" height="5.96"/><rect class="ak" x="147.63" y="172.56" width="5.96" height="5.96"/><rect class="ak" x="147.63" y="89.23" width="5.96" height="5.96"/><rect class="ak" x="147.63" y="77.36" width="5.96" height="5.91"/><rect class="ak" x="141.67" y="83.27" width="5.96" height="5.96"/><g><rect class="ae" x="153.6" y="130.93" width="5.96" height="5.96"/><rect class="ae" x="153.6" y="35.67" width="5.96" height="5.96"/><rect class="ae" x="147.63" y="136.89" width="5.96" height="5.91"/><rect class="ae" x="147.63" y="124.96" width="5.96" height="5.96"/><rect class="ae" x="147.63" y="41.63" width="5.96" height="5.96"/><rect class="ae" x="147.63" y="29.7" width="5.96" height="5.96"/><rect class="ae" x="141.67" y="130.93" width="5.96" height="5.96"/><rect class="ae" x="141.67" y="35.67" width="5.96" height="5.96"/></g><g><path class="al" d="M177.4,17.83h-5.96v5.91h5.96v5.96h5.96v-11.87h-5.96Z"/><path class="al" d="M171.43,160.69v5.96h5.96v5.91h5.96v-11.87h-11.93Z"/><path class="al" d="M171.43,113.03v5.96h5.96v5.96h5.96v-11.93h-11.93Z"/><path class="al" d="M177.4,65.43h-5.96v5.96h5.96v5.96h5.96v-11.93h-5.96Z"/><path class="al" d="M165.53,172.56v5.96h11.87v-5.96h-11.87Z"/><path class="al" d="M165.53,124.96v5.96h11.87v-5.96h-11.87Z"/><path class="al" d="M165.53,77.36v5.91h11.87v-5.91h-11.87Z"/><path class="al" d="M165.53,29.7v5.96h11.87v-5.96h-11.87Z"/><path class="al" d="M147.63,166.66v5.91h5.96v-11.87h-5.96v5.96Z"/><path class="al" d="M147.63,119v5.96h5.96v-11.93h-5.96v5.96Z"/><path class="al" d="M147.63,71.4v5.96h5.96v-11.93h-5.96v5.96Z"/><path class="al" d="M147.63,23.74v5.96h5.96v-11.87h-5.96v5.91Z"/><path class="al" d="M141.67,190.46v5.96h5.96v-11.93h-5.96v5.96Z"/><path class="al" d="M147.63,148.76v-11.87h-5.96v23.8h5.96v-11.93Z"/><path class="al" d="M147.63,101.16v-11.93h-5.96v23.8h5.96v-11.87Z"/><path class="al" d="M147.63,53.5v-11.87h-5.96v23.8h5.96v-11.93Z"/><path class="al" d="M147.63,5.91h-5.96v11.93h5.96V5.91Z"/><path class="al" d="M141.67,172.56h-11.87v5.96h11.87v-5.96Z"/><path class="al" d="M135.76,130.93h5.91v-5.96h-11.87v5.96h5.96Z"/><path class="al" d="M135.76,83.27h5.91v-5.91h-11.87v5.91h5.96Z"/><path class="al" d="M135.76,35.67h5.91v-5.96h-11.87v5.96h5.96Z"/><path class="al" d="M123.83,166.66h-5.96v5.91h11.93v-5.91h-5.96Z"/><path class="al" d="M123.83,124.96h5.96v-5.96h-11.93v5.96h5.96Z"/><path class="al" d="M123.83,77.36h5.96v-5.96h-11.93v5.96h5.96Z"/><path class="al" d="M123.83,29.7h5.96v-5.96h-11.93v5.96h5.96Z"/><rect class="al" x="111.9" y="160.69" width="5.96" height="5.96"/><rect class="al" x="111.9" y="113.03" width="5.96" height="5.96"/><rect class="al" x="111.9" y="65.43" width="5.96" height="5.96"/><rect class="al" x="111.9" y="17.83" width="5.96" height="5.91"/></g><g><path class="aa" d="M171.43,154.73v5.96h11.93v5.96h5.96v-11.93h-17.89Z"/><path class="aa" d="M171.43,107.13v5.91h-5.91v11.93h11.87v-5.96h-5.96v-5.96h11.93v5.96h5.96v-11.87h-17.89Z"/><path class="aa" d="M165.53,166.66v5.91h11.87v-5.91h-5.96v-5.96h-5.91v5.96Z"/><path class="aa" d="M153.6,166.66v11.87h5.96v-17.83h-5.96v5.96Z"/><rect class="aa" x="147.63" y="190.46" width="5.96" height="5.96"/><path class="aa" d="M153.6,142.8h-5.96v17.89h5.96v-17.89Z"/><path class="aa" d="M135.76,160.69h-5.96v-5.96h-17.89v5.96h5.96v5.96h11.93v5.91h11.87v-5.91h-5.91v-5.96Z"/><path class="aa" d="M135.76,113.03h-5.96v-5.91h-17.89v5.91h5.96v5.96h11.93v5.96h11.87v-5.96h-5.91v-5.96Z"/><path class="aa" d="M183.36,11.87h-11.93v5.96h11.93v5.91h5.96V11.87h-5.96Z"/><path class="aa" d="M171.43,59.47v5.96h11.93v5.96h5.96v-11.93h-17.89Z"/><path class="aa" d="M165.53,71.4v5.96h11.87v-5.96h-5.96v-5.96h-5.91v5.96Z"/><path class="aa" d="M165.53,23.74v5.96h11.87v-5.96h-5.96v-5.91h-5.91v5.91Z"/><path class="aa" d="M153.6,71.4v11.87h5.96v-17.83h-5.96v5.96Z"/><path class="aa" d="M153.6,23.74v11.93h5.96V17.83h-5.96v5.91Z"/><path class="aa" d="M153.6,107.13v-11.93h-5.96v17.83h5.96v-5.91Z"/><path class="aa" d="M153.6,47.6h-5.96v17.83h5.96v-17.83Z"/><path class="aa" d="M147.63,5.91v11.93h5.96V5.91h-5.96Z"/><path class="aa" d="M117.87,71.4h11.93v5.96h11.87v-5.96h-5.91v-5.96h-5.96v-5.96h-17.89v5.96h5.96v5.96Z"/><path class="aa" d="M117.87,23.74h11.93v5.96h11.87v-5.96h-5.91v-5.91h-5.96v-5.96h-17.89v5.96h5.96v5.91Z"/></g><g><path class="ah" d="M189.32,11.87v11.87h-5.96v5.96h-5.96v5.96h-11.87V17.83h-5.96v23.8h23.8v-5.96h5.96v-5.96h5.96V11.87h-5.96Z"/><path class="ah" d="M183.36,154.73h5.96v-5.96h-17.89v5.96h11.93Z"/><path class="ah" d="M183.36,107.13h5.96v-5.96h-17.89v5.96h11.93Z"/><path class="ah" d="M183.36,59.47h5.96v-5.96h-17.89v5.96h11.93Z"/><path class="ah" d="M183.36,11.87h5.96V5.91h-17.89v5.96h11.93Z"/><rect class="ah" x="165.53" y="154.73" width="5.91" height="5.96"/><rect class="ah" x="165.53" y="107.13" width="5.91" height="5.91"/><rect class="ah" x="165.53" y="59.47" width="5.91" height="5.96"/><rect class="ah" x="165.53" y="11.87" width="5.91" height="5.96"/><path class="ah" d="M159.56,172.56v11.93h23.8v-5.96h5.96v-5.96h5.96v-17.83h-5.96v11.93h-5.96v5.91h-5.96v5.96h-11.87v-17.83h-5.96v11.87Z"/><path class="ah" d="M159.56,124.96v11.93h23.8v-5.96h5.96v-5.96h5.96v-17.83h-5.96v11.87h-5.96v5.96h-5.96v5.96h-11.87v-17.89h-5.96v11.93Z"/><path class="ah" d="M159.56,77.36v11.87h23.8v-5.96h5.96v-5.91h5.96v-17.89h-5.96v11.93h-5.96v5.96h-5.96v5.91h-11.87v-17.83h-5.96v11.93Z"/><path class="ah" d="M153.6,190.46v5.96h5.96v-11.93h-5.96v5.96Z"/><path class="ah" d="M153.6,142.8v17.89h5.96v-23.8h-5.96v5.91Z"/><path class="ah" d="M153.6,95.2v17.83h5.96v-23.8h-5.96v5.96Z"/><path class="ah" d="M153.6,47.6v17.83h5.96v-23.8h-5.96v5.96Z"/><path class="ah" d="M159.56,5.91h-5.96v11.93h5.96V5.91Z"/><path class="ah" d="M141.67,11.87V5.91h-5.91v5.96h-5.96v5.96h5.96v5.91h5.91v11.93h5.96V17.83h-5.96v-5.96Z"/><path class="ah" d="M129.8,178.53v5.96h5.96v11.93h5.91v-17.89h-11.87Z"/><path class="ah" d="M129.8,130.93v5.96h5.96v17.84h-5.96v5.96h5.96v5.96h5.91v11.87h5.96v-17.83h-5.96v-29.77h-11.87Z"/><path class="ah" d="M129.8,83.27v5.96h5.96v17.89h-5.96v5.91h5.96v5.96h5.91v11.93h5.96v-17.89h-5.96v-29.76h-11.87Z"/><path class="ah" d="M129.8,35.67v5.96h5.96v17.83h-5.96v5.96h5.96v5.96h5.91v11.87h5.96v-17.83h-5.96v-29.76h-11.87Z"/><path class="ah" d="M123.83,172.56h-5.96v5.96h11.93v-5.96h-5.96Z"/><path class="ah" d="M123.83,124.96h-5.96v5.96h11.93v-5.96h-5.96Z"/><path class="ah" d="M123.83,77.36h-5.96v5.91h11.93v-5.91h-5.96Z"/><path class="ah" d="M123.83,29.7h-5.96v5.96h11.93v-5.96h-5.96Z"/><rect class="ah" x="111.9" y="166.66" width="5.96" height="5.91"/><rect class="ah" x="111.9" y="119" width="5.96" height="5.96"/><rect class="ah" x="111.9" y="71.4" width="5.96" height="5.96"/><rect class="ah" x="111.9" y="23.74" width="5.96" height="5.96"/><path class="ah" d="M111.9,154.73h17.89v-5.96h-23.8v17.89h5.91v-11.93Z"/><path class="ah" d="M111.9,107.13h17.89v-5.96h-23.8v17.83h5.91v-11.87Z"/><path class="ah" d="M111.9,59.47h17.89v-5.96h-23.8v17.89h5.91v-11.93Z"/><path class="ah" d="M111.9,11.87h17.89V5.91h-23.8V23.74h5.91V11.87Z"/></g></g><g id="e"><rect class="af" x="236.42" y="599.68" width="5.96" height="5.96"/><rect class="af" x="236.42" y="694.94" width="5.96" height="5.96"/><rect class="aq" x="236.42" y="552.08" width="5.96" height="5.96"/><rect class="aq" x="236.42" y="647.34" width="5.96" height="5.96"/><rect class="ak" x="236.42" y="700.9" width="5.96" height="5.96"/><rect class="ak" x="230.45" y="694.94" width="5.96" height="5.96"/><rect class="ak" x="242.38" y="694.94" width="5.96" height="5.96"/><path class="aa" d="M242.38,629.44v17.89h5.96v-17.89h-5.96Z"/><rect class="ak" x="242.38" y="599.68" width="5.96" height="5.96"/><rect class="ak" x="236.42" y="688.97" width="5.96" height="5.96"/><rect class="ak" x="236.42" y="605.64" width="5.96" height="5.96"/><rect class="ak" x="236.42" y="593.77" width="5.96" height="5.91"/><rect class="ak" x="230.45" y="599.68" width="5.96" height="5.96"/><g><rect class="ae" x="242.38" y="647.34" width="5.96" height="5.96"/><rect class="ae" x="242.38" y="552.08" width="5.96" height="5.96"/><rect class="ae" x="236.42" y="653.3" width="5.96" height="5.91"/><rect class="ae" x="236.42" y="641.37" width="5.96" height="5.96"/><rect class="ae" x="236.42" y="558.04" width="5.96" height="5.96"/><rect class="ae" x="236.42" y="546.11" width="5.96" height="5.96"/><rect class="ae" x="230.45" y="647.34" width="5.96" height="5.96"/><rect class="ae" x="230.45" y="552.08" width="5.96" height="5.96"/></g><g><path class="al" d="M266.18,534.24h-5.96v5.91h5.96v5.96h5.96v-11.87h-5.96Z"/><path class="al" d="M260.22,677.1v5.96h5.96v5.91h5.96v-11.87h-11.93Z"/><path class="al" d="M260.22,629.44v5.96h5.96v5.96h5.96v-11.93h-11.93Z"/><path class="al" d="M266.18,581.84h-5.96v5.96h5.96v5.96h5.96v-11.93h-5.96Z"/><path class="al" d="M254.31,688.97v5.96h11.87v-5.96h-11.87Z"/><path class="al" d="M254.31,641.37v5.96h11.87v-5.96h-11.87Z"/><path class="al" d="M254.31,593.77v5.91h11.87v-5.91h-11.87Z"/><path class="al" d="M254.31,546.11v5.96h11.87v-5.96h-11.87Z"/><path class="al" d="M236.42,683.07v5.91h5.96v-11.87h-5.96v5.96Z"/><path class="al" d="M236.42,635.41v5.96h5.96v-11.93h-5.96v5.96Z"/><path class="al" d="M236.42,587.81v5.96h5.96v-11.93h-5.96v5.96Z"/><path class="al" d="M236.42,540.15v5.96h5.96v-11.87h-5.96v5.91Z"/><path class="al" d="M230.45,706.87v5.96h5.96v-11.93h-5.96v5.96Z"/><path class="al" d="M236.42,665.17v-11.87h-5.96v23.8h5.96v-11.93Z"/><path class="al" d="M236.42,617.57v-11.93h-5.96v23.8h5.96v-11.87Z"/><path class="al" d="M236.42,569.91v-11.87h-5.96v23.8h5.96v-11.93Z"/><path class="al" d="M236.42,522.31h-5.96v11.93h5.96v-11.93Z"/><path class="al" d="M230.45,688.97h-11.87v5.96h11.87v-5.96Z"/><path class="al" d="M224.55,647.34h5.91v-5.96h-11.87v5.96h5.96Z"/><path class="al" d="M224.55,599.68h5.91v-5.91h-11.87v5.91h5.96Z"/><path class="al" d="M224.55,552.08h5.91v-5.96h-11.87v5.96h5.96Z"/><path class="al" d="M212.62,683.07h-5.96v5.91h11.93v-5.91h-5.96Z"/><path class="al" d="M212.62,641.37h5.96v-5.96h-11.93v5.96h5.96Z"/><path class="al" d="M212.62,593.77h5.96v-5.96h-11.93v5.96h5.96Z"/><path class="al" d="M212.62,546.11h5.96v-5.96h-11.93v5.96h5.96Z"/><rect class="al" x="200.69" y="677.1" width="5.96" height="5.96"/><rect class="al" x="200.69" y="629.44" width="5.96" height="5.96"/><rect class="al" x="200.69" y="581.84" width="5.96" height="5.96"/><rect class="al" x="200.69" y="534.24" width="5.96" height="5.91"/></g><g><path class="aa" d="M260.22,671.14v5.96h11.93v5.96h5.96v-11.93h-17.89Z"/><path class="aa" d="M260.22,623.54v5.91h-5.91v11.93h11.87v-5.96h-5.96v-5.96h11.93v5.96h5.96v-11.87h-17.89Z"/><path class="aa" d="M254.31,683.07v5.91h11.87v-5.91h-5.96v-5.96h-5.91v5.96Z"/><path class="aa" d="M242.38,683.07v11.87h5.96v-17.83h-5.96v5.96Z"/><rect class="aa" x="236.42" y="706.87" width="5.96" height="5.96"/><path class="aa" d="M242.38,659.21h-5.96v17.89h5.96v-17.89Z"/><path class="aa" d="M224.55,677.1h-5.96v-5.96h-17.89v5.96h5.96v5.96h11.93v5.91h11.87v-5.91h-5.91v-5.96Z"/><path class="aa" d="M224.55,629.44h-5.96v-5.91h-17.89v5.91h5.96v5.96h11.93v5.96h11.87v-5.96h-5.91v-5.96Z"/><path class="aa" d="M272.15,528.28h-11.93v5.96h11.93v5.91h5.96v-11.87h-5.96Z"/><path class="aa" d="M260.22,575.88v5.96h11.93v5.96h5.96v-11.93h-17.89Z"/><path class="aa" d="M254.31,587.81v5.96h11.87v-5.96h-5.96v-5.96h-5.91v5.96Z"/><path class="aa" d="M254.31,540.15v5.96h11.87v-5.96h-5.96v-5.91h-5.91v5.91Z"/><path class="aa" d="M242.38,587.81v11.87h5.96v-17.83h-5.96v5.96Z"/><path class="aa" d="M242.38,540.15v11.93h5.96v-17.83h-5.96v5.91Z"/><path class="aa" d="M242.38,623.54v-11.93h-5.96v17.83h5.96v-5.91Z"/><path class="aa" d="M242.38,564.01h-5.96v17.83h5.96v-17.83Z"/><path class="aa" d="M236.42,522.31v11.93h5.96v-11.93h-5.96Z"/><path class="aa" d="M206.65,587.81h11.93v5.96h11.87v-5.96h-5.91v-5.96h-5.96v-5.96h-17.89v5.96h5.96v5.96Z"/><path class="aa" d="M206.65,540.15h11.93v5.96h11.87v-5.96h-5.91v-5.91h-5.96v-5.96h-17.89v5.96h5.96v5.91Z"/></g><g><path class="ah" d="M278.11,528.28v11.87h-5.96v5.96h-5.96v5.96h-11.87v-17.83h-5.96v23.8h23.8v-5.96h5.96v-5.96h5.96v-17.83h-5.96Z"/><path class="ah" d="M272.15,671.14h5.96v-5.96h-17.89v5.96h11.93Z"/><path class="ah" d="M272.15,623.54h5.96v-5.96h-17.89v5.96h11.93Z"/><path class="ah" d="M272.15,575.88h5.96v-5.96h-17.89v5.96h11.93Z"/><path class="ah" d="M272.15,528.28h5.96v-5.96h-17.89v5.96h11.93Z"/><rect class="ah" x="254.31" y="671.14" width="5.91" height="5.96"/><rect class="ah" x="254.31" y="623.54" width="5.91" height="5.91"/><rect class="ah" x="254.31" y="575.88" width="5.91" height="5.96"/><rect class="ah" x="254.31" y="528.28" width="5.91" height="5.96"/><path class="ah" d="M248.35,688.97v11.93h23.8v-5.96h5.96v-5.96h5.96v-17.83h-5.96v11.93h-5.96v5.91h-5.96v5.96h-11.87v-17.83h-5.96v11.87Z"/><path class="ah" d="M248.35,641.37v11.93h23.8v-5.96h5.96v-5.96h5.96v-17.83h-5.96v11.87h-5.96v5.96h-5.96v5.96h-11.87v-17.89h-5.96v11.93Z"/><path class="ah" d="M248.35,593.77v11.87h23.8v-5.96h5.96v-5.91h5.96v-17.89h-5.96v11.93h-5.96v5.96h-5.96v5.91h-11.87v-17.83h-5.96v11.93Z"/><path class="ah" d="M242.38,706.87v5.96h5.96v-11.93h-5.96v5.96Z"/><path class="ah" d="M242.38,659.21v17.89h5.96v-23.8h-5.96v5.91Z"/><path class="ah" d="M242.38,611.61v17.83h5.96v-23.8h-5.96v5.96Z"/><path class="ah" d="M242.38,564.01v17.83h5.96v-23.8h-5.96v5.96Z"/><path class="ah" d="M248.35,522.31h-5.96v11.93h5.96v-11.93Z"/><path class="ah" d="M230.45,528.28v-5.96h-5.91v5.96h-5.96v5.96h5.96v5.91h5.91v11.93h5.96v-17.83h-5.96v-5.96Z"/><path class="ah" d="M218.58,694.94v5.96h5.96v11.93h5.91v-17.89h-11.87Z"/><path class="ah" d="M218.58,647.34v5.96h5.96v17.84h-5.96v5.96h5.96v5.96h5.91v11.87h5.96v-17.83h-5.96v-29.77h-11.87Z"/><path class="ah" d="M218.58,599.68v5.96h5.96v17.89h-5.96v5.91h5.96v5.96h5.91v11.93h5.96v-17.89h-5.96v-29.76h-11.87Z"/><path class="ah" d="M218.58,552.08v5.96h5.96v17.83h-5.96v5.96h5.96v5.96h5.91v11.87h5.96v-17.83h-5.96v-29.76h-11.87Z"/><path class="ah" d="M212.62,688.97h-5.96v5.96h11.93v-5.96h-5.96Z"/><path class="ah" d="M212.62,641.37h-5.96v5.96h11.93v-5.96h-5.96Z"/><path class="ah" d="M212.62,593.77h-5.96v5.91h11.93v-5.91h-5.96Z"/><path class="ah" d="M212.62,546.11h-5.96v5.96h11.93v-5.96h-5.96Z"/><rect class="ah" x="200.69" y="683.07" width="5.96" height="5.91"/><rect class="ah" x="200.69" y="635.41" width="5.96" height="5.96"/><rect class="ah" x="200.69" y="587.81" width="5.96" height="5.96"/><rect class="ah" x="200.69" y="540.15" width="5.96" height="5.96"/><path class="ah" d="M200.69,671.14h17.89v-5.96h-23.8v17.89h5.91v-11.93Z"/><path class="ah" d="M200.69,623.54h17.89v-5.96h-23.8v17.83h5.91v-11.87Z"/><path class="ah" d="M200.69,575.88h17.89v-5.96h-23.8v17.89h5.91v-11.93Z"/><path class="ah" d="M200.69,528.28h17.89v-5.96h-23.8v17.83h5.91v-11.87Z"/></g></g><g id="f"><rect class="af" x="435.44" y="338.21" width="5.96" height="5.96"/><rect class="af" x="435.44" y="433.47" width="5.96" height="5.96"/><rect class="aq" x="435.44" y="290.61" width="5.96" height="5.96"/><rect class="aq" x="435.44" y="385.87" width="5.96" height="5.96"/><rect class="ak" x="435.44" y="439.43" width="5.96" height="5.96"/><rect class="ak" x="429.47" y="433.47" width="5.96" height="5.96"/><rect class="ak" x="441.4" y="433.47" width="5.96" height="5.96"/><path class="aa" d="M441.4,367.97v17.89h5.96v-17.89h-5.96Z"/><rect class="ak" x="441.4" y="338.21" width="5.96" height="5.96"/><rect class="ak" x="435.44" y="427.5" width="5.96" height="5.96"/><rect class="ak" x="435.44" y="344.17" width="5.96" height="5.96"/><rect class="ak" x="435.44" y="332.3" width="5.96" height="5.91"/><rect class="ak" x="429.47" y="338.21" width="5.96" height="5.96"/><g><rect class="ae" x="441.4" y="385.87" width="5.96" height="5.96"/><rect class="ae" x="441.4" y="290.61" width="5.96" height="5.96"/><rect class="ae" x="435.44" y="391.83" width="5.96" height="5.91"/><rect class="ae" x="435.44" y="379.9" width="5.96" height="5.96"/><rect class="ae" x="435.44" y="296.57" width="5.96" height="5.96"/><rect class="ae" x="435.44" y="284.64" width="5.96" height="5.96"/><rect class="ae" x="429.47" y="385.87" width="5.96" height="5.96"/><rect class="ae" x="429.47" y="290.61" width="5.96" height="5.96"/></g><g><path class="al" d="M465.2,272.77h-5.96v5.91h5.96v5.96h5.96v-11.87h-5.96Z"/><path class="al" d="M459.24,415.63v5.96h5.96v5.91h5.96v-11.87h-11.93Z"/><path class="al" d="M459.24,367.97v5.96h5.96v5.96h5.96v-11.93h-11.93Z"/><path class="al" d="M465.2,320.37h-5.96v5.96h5.96v5.96h5.96v-11.93h-5.96Z"/><path class="al" d="M453.33,427.5v5.96h11.87v-5.96h-11.87Z"/><path class="al" d="M453.33,379.9v5.96h11.87v-5.96h-11.87Z"/><path class="al" d="M453.33,332.3v5.91h11.87v-5.91h-11.87Z"/><path class="al" d="M453.33,284.64v5.96h11.87v-5.96h-11.87Z"/><path class="al" d="M435.44,421.6v5.91h5.96v-11.87h-5.96v5.96Z"/><path class="al" d="M435.44,373.94v5.96h5.96v-11.93h-5.96v5.96Z"/><path class="al" d="M435.44,326.34v5.96h5.96v-11.93h-5.96v5.96Z"/><path class="al" d="M435.44,278.68v5.96h5.96v-11.87h-5.96v5.91Z"/><path class="al" d="M429.47,445.4v5.96h5.96v-11.93h-5.96v5.96Z"/><path class="al" d="M435.44,403.7v-11.87h-5.96v23.8h5.96v-11.93Z"/><path class="al" d="M435.44,356.1v-11.93h-5.96v23.8h5.96v-11.87Z"/><path class="al" d="M435.44,308.44v-11.87h-5.96v23.8h5.96v-11.93Z"/><path class="al" d="M435.44,260.84h-5.96v11.93h5.96v-11.93Z"/><path class="al" d="M429.47,427.5h-11.87v5.96h11.87v-5.96Z"/><path class="al" d="M423.57,385.87h5.91v-5.96h-11.87v5.96h5.96Z"/><path class="al" d="M423.57,338.21h5.91v-5.91h-11.87v5.91h5.96Z"/><path class="al" d="M423.57,290.61h5.91v-5.96h-11.87v5.96h5.96Z"/><path class="al" d="M411.64,421.6h-5.96v5.91h11.93v-5.91h-5.96Z"/><path class="al" d="M411.64,379.9h5.96v-5.96h-11.93v5.96h5.96Z"/><path class="al" d="M411.64,332.3h5.96v-5.96h-11.93v5.96h5.96Z"/><path class="al" d="M411.64,284.64h5.96v-5.96h-11.93v5.96h5.96Z"/><rect class="al" x="399.71" y="415.63" width="5.96" height="5.96"/><rect class="al" x="399.71" y="367.97" width="5.96" height="5.96"/><rect class="al" x="399.71" y="320.37" width="5.96" height="5.96"/><rect class="al" x="399.71" y="272.77" width="5.96" height="5.91"/></g><g><path class="aa" d="M459.24,409.67v5.96h11.93v5.96h5.96v-11.93h-17.89Z"/><path class="aa" d="M459.24,362.07v5.91h-5.91v11.93h11.87v-5.96h-5.96v-5.96h11.93v5.96h5.96v-11.87h-17.89Z"/><path class="aa" d="M453.33,421.6v5.91h11.87v-5.91h-5.96v-5.96h-5.91v5.96Z"/><path class="aa" d="M441.4,421.6v11.87h5.96v-17.83h-5.96v5.96Z"/><rect class="aa" x="435.44" y="445.4" width="5.96" height="5.96"/><path class="aa" d="M441.4,397.74h-5.96v17.89h5.96v-17.89Z"/><path class="aa" d="M423.57,415.63h-5.96v-5.96h-17.89v5.96h5.96v5.96h11.93v5.91h11.87v-5.91h-5.91v-5.96Z"/><path class="aa" d="M423.57,367.97h-5.96v-5.91h-17.89v5.91h5.96v5.96h11.93v5.96h11.87v-5.96h-5.91v-5.96Z"/><path class="aa" d="M471.17,266.81h-11.93v5.96h11.93v5.91h5.96v-11.87h-5.96Z"/><path class="aa" d="M459.24,314.41v5.96h11.93v5.96h5.96v-11.93h-17.89Z"/><path class="aa" d="M453.33,326.34v5.96h11.87v-5.96h-5.96v-5.96h-5.91v5.96Z"/><path class="aa" d="M453.33,278.68v5.96h11.87v-5.96h-5.96v-5.91h-5.91v5.91Z"/><path class="aa" d="M441.4,326.34v11.87h5.96v-17.83h-5.96v5.96Z"/><path class="aa" d="M441.4,278.68v11.93h5.96v-17.83h-5.96v5.91Z"/><path class="aa" d="M441.4,362.07v-11.93h-5.96v17.83h5.96v-5.91Z"/><path class="aa" d="M441.4,302.54h-5.96v17.83h5.96v-17.83Z"/><path class="aa" d="M435.44,260.84v11.93h5.96v-11.93h-5.96Z"/><path class="aa" d="M405.67,326.34h11.93v5.96h11.87v-5.96h-5.91v-5.96h-5.96v-5.96h-17.89v5.96h5.96v5.96Z"/><path class="aa" d="M405.67,278.68h11.93v5.96h11.87v-5.96h-5.91v-5.91h-5.96v-5.96h-17.89v5.96h5.96v5.91Z"/></g><g><path class="ah" d="M477.13,266.81v11.87h-5.96v5.96h-5.96v5.96h-11.87v-17.83h-5.96v23.8h23.8v-5.96h5.96v-5.96h5.96v-17.83h-5.96Z"/><path class="ah" d="M471.16,409.67h5.96v-5.96h-17.89v5.96h11.93Z"/><path class="ah" d="M471.16,362.07h5.96v-5.96h-17.89v5.96h11.93Z"/><path class="ah" d="M471.16,314.41h5.96v-5.96h-17.89v5.96h11.93Z"/><path class="ah" d="M471.16,266.81h5.96v-5.96h-17.89v5.96h11.93Z"/><rect class="ah" x="453.33" y="409.67" width="5.91" height="5.96"/><rect class="ah" x="453.33" y="362.07" width="5.91" height="5.91"/><rect class="ah" x="453.33" y="314.41" width="5.91" height="5.96"/><rect class="ah" x="453.33" y="266.81" width="5.91" height="5.96"/><path class="ah" d="M447.37,427.5v11.93h23.8v-5.96h5.96v-5.96h5.96v-17.83h-5.96v11.93h-5.96v5.91h-5.96v5.96h-11.87v-17.83h-5.96v11.87Z"/><path class="ah" d="M447.37,379.9v11.93h23.8v-5.96h5.96v-5.96h5.96v-17.83h-5.96v11.87h-5.96v5.96h-5.96v5.96h-11.87v-17.89h-5.96v11.93Z"/><path class="ah" d="M447.37,332.3v11.87h23.8v-5.96h5.96v-5.91h5.96v-17.89h-5.96v11.93h-5.96v5.96h-5.96v5.91h-11.87v-17.83h-5.96v11.93Z"/><path class="ah" d="M441.4,445.4v5.96h5.96v-11.93h-5.96v5.96Z"/><path class="ah" d="M441.4,397.74v17.89h5.96v-23.8h-5.96v5.91Z"/><path class="ah" d="M441.4,350.14v17.83h5.96v-23.8h-5.96v5.96Z"/><path class="ah" d="M441.4,302.54v17.83h5.96v-23.8h-5.96v5.96Z"/><path class="ah" d="M447.37,260.84h-5.96v11.93h5.96v-11.93Z"/><path class="ah" d="M429.47,266.81v-5.96h-5.91v5.96h-5.96v5.96h5.96v5.91h5.91v11.93h5.96v-17.83h-5.96v-5.96Z"/><path class="ah" d="M417.6,433.47v5.96h5.96v11.93h5.91v-17.89h-11.87Z"/><path class="ah" d="M417.6,385.87v5.96h5.96v17.84h-5.96v5.96h5.96v5.96h5.91v11.87h5.96v-17.83h-5.96v-29.77h-11.87Z"/><path class="ah" d="M417.6,338.21v5.96h5.96v17.89h-5.96v5.91h5.96v5.96h5.91v11.93h5.96v-17.89h-5.96v-29.76h-11.87Z"/><path class="ah" d="M417.6,290.61v5.96h5.96v17.83h-5.96v5.96h5.96v5.96h5.91v11.87h5.96v-17.83h-5.96v-29.76h-11.87Z"/><path class="ah" d="M411.64,427.5h-5.96v5.96h11.93v-5.96h-5.96Z"/><path class="ah" d="M411.64,379.9h-5.96v5.96h11.93v-5.96h-5.96Z"/><path class="ah" d="M411.64,332.3h-5.96v5.91h11.93v-5.91h-5.96Z"/><path class="ah" d="M411.64,284.64h-5.96v5.96h11.93v-5.96h-5.96Z"/><rect class="ah" x="399.71" y="421.6" width="5.96" height="5.91"/><rect class="ah" x="399.71" y="373.94" width="5.96" height="5.96"/><rect class="ah" x="399.71" y="326.34" width="5.96" height="5.96"/><rect class="ah" x="399.71" y="278.68" width="5.96" height="5.96"/><path class="ah" d="M399.71,409.67h17.89v-5.96h-23.8v17.89h5.91v-11.93Z"/><path class="ah" d="M399.71,362.07h17.89v-5.96h-23.8v17.83h5.91v-11.87Z"/><path class="ah" d="M399.71,314.41h17.89v-5.96h-23.8v17.89h5.91v-11.93Z"/><path class="ah" d="M399.71,266.81h17.89v-5.96h-23.8v17.83h5.91v-11.87Z"/></g></g><g id="g"><rect class="af" x="729.26" y="154.34" width="5.96" height="5.96"/><rect class="aq" x="729.26" y="106.74" width="5.96" height="5.96"/><rect class="aq" x="729.26" y="202" width="5.96" height="5.96"/><g><rect class="ak" x="735.23" y="154.34" width="5.96" height="5.96"/><rect class="ak" x="729.26" y="160.31" width="5.96" height="5.96"/><rect class="ak" x="729.26" y="148.44" width="5.96" height="5.91"/><rect class="ak" x="723.3" y="154.34" width="5.96" height="5.96"/></g><g><rect class="ae" x="735.23" y="202" width="5.96" height="5.96"/><rect class="ae" x="735.23" y="106.74" width="5.96" height="5.96"/><rect class="ae" x="729.26" y="207.96" width="5.96" height="5.91"/><rect class="ae" x="729.26" y="196.03" width="5.96" height="5.96"/><rect class="ae" x="729.26" y="112.71" width="5.96" height="5.96"/><rect class="ae" x="729.26" y="100.78" width="5.96" height="5.96"/><rect class="ae" x="723.3" y="202" width="5.96" height="5.96"/><rect class="ae" x="723.3" y="106.74" width="5.96" height="5.96"/></g><g><path class="al" d="M759.03,88.91h-5.96v5.91h5.96v5.96h5.96v-11.87h-5.96Z"/><path class="al" d="M753.06,184.11v5.96h5.96v5.96h5.96v-11.93h-11.93Z"/><path class="al" d="M753.06,136.51v5.96h5.96v5.96h5.96v-11.93h-11.93Z"/><path class="al" d="M747.16,196.03v5.96h11.87v-5.96h-11.87Z"/><path class="al" d="M747.16,148.44v5.91h11.87v-5.91h-11.87Z"/><path class="al" d="M747.16,100.78v5.96h11.87v-5.96h-11.87Z"/><path class="al" d="M729.26,190.07v5.96h5.96v-11.93h-5.96v5.96Z"/><path class="al" d="M729.26,142.47v5.96h5.96v-11.93h-5.96v5.96Z"/><path class="al" d="M729.26,94.81v5.96h5.96v-11.87h-5.96v5.91Z"/><path class="al" d="M723.3,213.87v5.96h5.96v-11.87h-5.96v5.91Z"/><path class="al" d="M729.26,172.24v-11.93h-5.96v23.8h5.96v-11.87Z"/><path class="al" d="M723.3,136.51h5.96v-23.8h-5.96v23.8Z"/><path class="al" d="M729.26,76.98h-5.96v11.93h5.96v-11.93Z"/><path class="al" d="M723.3,196.03h-11.87v5.96h11.87v-5.96Z"/><path class="al" d="M717.39,154.34h5.91v-5.91h-11.87v5.91h5.96Z"/><path class="al" d="M717.39,106.74h5.91v-5.96h-11.87v5.96h5.96Z"/><path class="al" d="M705.47,190.07h-5.96v5.96h11.93v-5.96h-5.96Z"/><path class="al" d="M705.47,148.44h5.96v-5.96h-11.93v5.96h5.96Z"/><path class="al" d="M705.47,100.78h5.96v-5.96h-11.93v5.96h5.96Z"/><rect class="al" x="693.54" y="184.11" width="5.96" height="5.96"/><rect class="al" x="693.54" y="136.51" width="5.96" height="5.96"/><rect class="al" x="693.54" y="88.91" width="5.96" height="5.91"/></g><g><path class="aa" d="M764.99,82.94h-11.93v5.96h11.93v5.91h5.96v-11.87h-5.96Z"/><path class="aa" d="M759.03,178.2h-5.96v5.91h11.93v5.96h5.96v-11.87h-11.93Z"/><path class="aa" d="M759.03,130.54h-5.96v5.96h11.93v5.96h5.96v-11.93h-11.93Z"/><path class="aa" d="M747.16,190.07v5.96h11.87v-5.96h-5.96v-5.96h-5.91v5.96Z"/><path class="aa" d="M747.16,142.47v5.96h11.87v-5.96h-5.96v-5.96h-5.91v5.96Z"/><path class="aa" d="M747.16,94.81v5.96h11.87v-5.96h-5.96v-5.91h-5.91v5.91Z"/><path class="aa" d="M735.23,190.07v11.93h5.96v-17.89h-5.96v5.96Z"/><path class="aa" d="M735.23,142.47v11.87h5.96v-17.83h-5.96v5.96Z"/><path class="aa" d="M735.23,94.81v11.93h5.96v-17.83h-5.96v5.91Z"/><rect class="aa" x="729.26" y="213.87" width="5.96" height="5.96"/><path class="aa" d="M735.23,172.24v-5.96h-5.96v17.83h5.96v-11.87Z"/><path class="aa" d="M735.23,124.58v-5.91h-5.96v17.83h5.96v-11.93Z"/><path class="aa" d="M735.23,76.98h-5.96v11.93h5.96v-11.93Z"/><path class="aa" d="M717.39,184.11h-5.96v-5.91h-17.89v5.91h5.96v5.96h11.93v5.96h11.87v-5.96h-5.91v-5.96Z"/><path class="aa" d="M717.39,136.51h-5.96v-5.96h-17.89v5.96h5.96v5.96h11.93v5.96h11.87v-5.96h-5.91v-5.96Z"/><path class="aa" d="M717.39,88.91h-5.96v-5.96h-17.89v5.96h5.96v5.91h11.93v5.96h11.87v-5.96h-5.91v-5.91Z"/></g><g><path class="ah" d="M770.96,82.94v11.87h-5.96v5.96h-5.96v5.96h-11.87v-17.83h-5.96v23.8h23.8v-5.96h5.96v-5.96h5.96v-17.83h-5.96Z"/><path class="ah" d="M764.99,178.2h5.96v-5.96h-17.89v5.96h11.93Z"/><path class="ah" d="M764.99,130.54h5.96v-5.96h-17.89v5.96h11.93Z"/><path class="ah" d="M764.99,82.94h5.96v-5.96h-17.89v5.96h11.93Z"/><rect class="ah" x="747.16" y="178.2" width="5.91" height="5.91"/><rect class="ah" x="747.16" y="130.54" width="5.91" height="5.96"/><rect class="ah" x="747.16" y="82.94" width="5.91" height="5.96"/><path class="ah" d="M741.19,196.03v11.93h23.8v-5.96h5.96v-5.96h5.96v-17.83h-5.96v11.87h-5.96v5.96h-5.96v5.96h-11.87v-17.89h-5.96v11.93Z"/><path class="ah" d="M741.19,148.44v11.87h23.8v-5.96h5.96v-5.91h5.96v-17.89h-5.96v11.93h-5.96v5.96h-5.96v5.91h-11.87v-17.83h-5.96v11.93Z"/><path class="ah" d="M735.23,213.87v5.96h5.96v-11.87h-5.96v5.91Z"/><path class="ah" d="M735.23,166.27v17.83h5.96v-23.8h-5.96v5.96Z"/><path class="ah" d="M735.23,118.67v17.83h5.96v-23.8h-5.96v5.96Z"/><path class="ah" d="M741.19,76.98h-5.96v11.93h5.96v-11.93Z"/><path class="ah" d="M723.3,82.94v-5.96h-5.91v5.96h-5.96v5.96h5.96v5.91h5.91v11.93h5.96v-17.83h-5.96v-5.96Z"/><path class="ah" d="M711.43,202v5.96h5.96v11.87h5.91v-17.84h-11.87Z"/><path class="ah" d="M711.43,154.34v5.96h5.96v17.89h-5.96v5.91h5.96v5.96h5.91v11.93h5.96v-17.89h-5.96v-29.76h-11.87Z"/><path class="ah" d="M711.43,106.74v5.96h5.96v17.83h-5.96v5.96h5.96v5.96h5.91v11.87h5.96v-17.83h-5.96v-29.76h-11.87Z"/><path class="ah" d="M705.47,196.03h-5.96v5.96h11.93v-5.96h-5.96Z"/><path class="ah" d="M705.47,148.44h-5.96v5.91h11.93v-5.91h-5.96Z"/><path class="ah" d="M705.47,100.78h-5.96v5.96h11.93v-5.96h-5.96Z"/><rect class="ah" x="693.54" y="190.07" width="5.96" height="5.96"/><rect class="ah" x="693.54" y="142.47" width="5.96" height="5.96"/><rect class="ah" x="693.54" y="94.81" width="5.96" height="5.96"/><path class="ah" d="M693.54,178.2h17.89v-5.96h-23.8v17.83h5.91v-11.87Z"/><path class="ah" d="M693.54,130.54h17.89v-5.96h-23.8v17.89h5.91v-11.93Z"/><path class="ah" d="M693.54,82.94h17.89v-5.96h-23.8v17.83h5.91v-11.87Z"/></g></g><g id="h"><rect class="af" x="836.1" y="593.74" width="5.96" height="5.96"/><rect class="aq" x="836.1" y="546.14" width="5.96" height="5.96"/><rect class="aq" x="836.1" y="641.4" width="5.96" height="5.96"/><g><rect class="ak" x="842.06" y="593.74" width="5.96" height="5.96"/><rect class="ak" x="836.1" y="599.71" width="5.96" height="5.96"/><rect class="ak" x="836.1" y="587.84" width="5.96" height="5.91"/><rect class="ak" x="830.13" y="593.74" width="5.96" height="5.96"/></g><g><rect class="ae" x="842.06" y="641.4" width="5.96" height="5.96"/><rect class="ae" x="842.06" y="546.14" width="5.96" height="5.96"/><rect class="ae" x="836.1" y="647.37" width="5.96" height="5.91"/><rect class="ae" x="836.1" y="635.44" width="5.96" height="5.96"/><rect class="ae" x="836.1" y="552.11" width="5.96" height="5.96"/><rect class="ae" x="836.1" y="540.18" width="5.96" height="5.96"/><rect class="ae" x="830.13" y="641.4" width="5.96" height="5.96"/><rect class="ae" x="830.13" y="546.14" width="5.96" height="5.96"/></g><g><path class="al" d="M865.86,528.31h-5.96v5.91h5.96v5.96h5.96v-11.87h-5.96Z"/><path class="al" d="M859.89,623.51v5.96h5.96v5.96h5.96v-11.93h-11.93Z"/><path class="al" d="M859.89,575.91v5.96h5.96v5.96h5.96v-11.93h-11.93Z"/><path class="al" d="M853.99,635.44v5.96h11.87v-5.96h-11.87Z"/><path class="al" d="M853.99,587.84v5.91h11.87v-5.91h-11.87Z"/><path class="al" d="M853.99,540.18v5.96h11.87v-5.96h-11.87Z"/><path class="al" d="M836.1,629.47v5.96h5.96v-11.93h-5.96v5.96Z"/><path class="al" d="M836.1,581.87v5.96h5.96v-11.93h-5.96v5.96Z"/><path class="al" d="M836.1,534.21v5.96h5.96v-11.87h-5.96v5.91Z"/><path class="al" d="M830.13,653.27v5.96h5.96v-11.87h-5.96v5.91Z"/><path class="al" d="M836.1,611.64v-11.93h-5.96v23.8h5.96v-11.87Z"/><path class="al" d="M830.13,575.91h5.96v-23.8h-5.96v23.8Z"/><path class="al" d="M836.1,516.38h-5.96v11.93h5.96v-11.93Z"/><path class="al" d="M830.13,635.44h-11.87v5.96h11.87v-5.96Z"/><path class="al" d="M824.23,593.74h5.91v-5.91h-11.87v5.91h5.96Z"/><path class="al" d="M824.23,546.14h5.91v-5.96h-11.87v5.96h5.96Z"/><path class="al" d="M812.3,629.47h-5.96v5.96h11.93v-5.96h-5.96Z"/><path class="al" d="M812.3,587.84h5.96v-5.96h-11.93v5.96h5.96Z"/><path class="al" d="M812.3,540.18h5.96v-5.96h-11.93v5.96h5.96Z"/><rect class="al" x="800.37" y="623.51" width="5.96" height="5.96"/><rect class="al" x="800.37" y="575.91" width="5.96" height="5.96"/><rect class="al" x="800.37" y="528.31" width="5.96" height="5.91"/></g><g><path class="aa" d="M871.82,522.34h-11.93v5.96h11.93v5.91h5.96v-11.87h-5.96Z"/><path class="aa" d="M865.86,617.6h-5.96v5.91h11.93v5.96h5.96v-11.87h-11.93Z"/><path class="aa" d="M865.86,569.94h-5.96v5.96h11.93v5.96h5.96v-11.93h-11.93Z"/><path class="aa" d="M853.99,629.47v5.96h11.87v-5.96h-5.96v-5.96h-5.91v5.96Z"/><path class="aa" d="M853.99,581.87v5.96h11.87v-5.96h-5.96v-5.96h-5.91v5.96Z"/><path class="aa" d="M853.99,534.21v5.96h11.87v-5.96h-5.96v-5.91h-5.91v5.91Z"/><path class="aa" d="M842.06,629.47v11.93h5.96v-17.89h-5.96v5.96Z"/><path class="aa" d="M842.06,581.87v11.87h5.96v-17.83h-5.96v5.96Z"/><path class="aa" d="M842.06,534.21v11.93h5.96v-17.83h-5.96v5.91Z"/><rect class="aa" x="836.1" y="653.27" width="5.96" height="5.96"/><path class="aa" d="M842.06,611.64v-5.96h-5.96v17.83h5.96v-11.87Z"/><path class="aa" d="M842.06,563.98v-5.91h-5.96v17.83h5.96v-11.93Z"/><path class="aa" d="M842.06,516.38h-5.96v11.93h5.96v-11.93Z"/><path class="aa" d="M824.23,623.51h-5.96v-5.91h-17.89v5.91h5.96v5.96h11.93v5.96h11.87v-5.96h-5.91v-5.96Z"/><path class="aa" d="M824.23,575.91h-5.96v-5.96h-17.89v5.96h5.96v5.96h11.93v5.96h11.87v-5.96h-5.91v-5.96Z"/><path class="aa" d="M824.23,528.31h-5.96v-5.96h-17.89v5.96h5.96v5.91h11.93v5.96h11.87v-5.96h-5.91v-5.91Z"/></g><g><path class="ah" d="M877.79,522.34v11.87h-5.96v5.96h-5.96v5.96h-11.87v-17.83h-5.96v23.8h23.8v-5.96h5.96v-5.96h5.96v-17.83h-5.96Z"/><path class="ah" d="M871.82,617.6h5.96v-5.96h-17.89v5.96h11.93Z"/><path class="ah" d="M871.82,569.94h5.96v-5.96h-17.89v5.96h11.93Z"/><path class="ah" d="M871.82,522.34h5.96v-5.96h-17.89v5.96h11.93Z"/><rect class="ah" x="853.99" y="617.6" width="5.91" height="5.91"/><rect class="ah" x="853.99" y="569.94" width="5.91" height="5.96"/><rect class="ah" x="853.99" y="522.34" width="5.91" height="5.96"/><path class="ah" d="M848.02,635.44v11.93h23.8v-5.96h5.96v-5.96h5.96v-17.83h-5.96v11.87h-5.96v5.96h-5.96v5.96h-11.87v-17.89h-5.96v11.93Z"/><path class="ah" d="M848.02,587.84v11.87h23.8v-5.96h5.96v-5.91h5.96v-17.89h-5.96v11.93h-5.96v5.96h-5.96v5.91h-11.87v-17.83h-5.96v11.93Z"/><path class="ah" d="M842.06,653.27v5.96h5.96v-11.87h-5.96v5.91Z"/><path class="ah" d="M842.06,605.67v17.83h5.96v-23.8h-5.96v5.96Z"/><path class="ah" d="M842.06,558.07v17.83h5.96v-23.8h-5.96v5.96Z"/><path class="ah" d="M848.02,516.38h-5.96v11.93h5.96v-11.93Z"/><path class="ah" d="M830.13,522.34v-5.96h-5.91v5.96h-5.96v5.96h5.96v5.91h5.91v11.93h5.96v-17.83h-5.96v-5.96Z"/><path class="ah" d="M818.26,641.4v5.96h5.96v11.87h5.91v-17.84h-11.87Z"/><path class="ah" d="M818.26,593.74v5.96h5.96v17.89h-5.96v5.91h5.96v5.96h5.91v11.93h5.96v-17.89h-5.96v-29.76h-11.87Z"/><path class="ah" d="M818.26,546.14v5.96h5.96v17.83h-5.96v5.96h5.96v5.96h5.91v11.87h5.96v-17.83h-5.96v-29.76h-11.87Z"/><path class="ah" d="M812.3,635.44h-5.96v5.96h11.93v-5.96h-5.96Z"/><path class="ah" d="M812.3,587.84h-5.96v5.91h11.93v-5.91h-5.96Z"/><path class="ah" d="M812.3,540.18h-5.96v5.96h11.93v-5.96h-5.96Z"/><rect class="ah" x="800.37" y="629.47" width="5.96" height="5.96"/><rect class="ah" x="800.37" y="581.87" width="5.96" height="5.96"/><rect class="ah" x="800.37" y="534.21" width="5.96" height="5.96"/><path class="ah" d="M800.37,617.6h17.89v-5.96h-23.8v17.83h5.91v-11.87Z"/><path class="ah" d="M800.37,569.94h17.89v-5.96h-23.8v17.89h5.91v-11.93Z"/><path class="ah" d="M800.37,522.34h17.89v-5.96h-23.8v17.83h5.91v-11.87Z"/></g></g><g id="i"><rect class="af" x="990.47" y="330.68" width="5.96" height="5.96"/><rect class="aq" x="990.47" y="283.08" width="5.96" height="5.96"/><rect class="aq" x="990.47" y="378.33" width="5.96" height="5.96"/><g><rect class="ak" x="996.43" y="330.68" width="5.96" height="5.96"/><rect class="ak" x="990.47" y="336.64" width="5.96" height="5.96"/><rect class="ak" x="990.47" y="324.77" width="5.96" height="5.91"/><rect class="ak" x="984.5" y="330.68" width="5.96" height="5.96"/></g><g><rect class="ae" x="996.43" y="378.33" width="5.96" height="5.96"/><rect class="ae" x="996.43" y="283.08" width="5.96" height="5.96"/><rect class="ae" x="990.47" y="384.3" width="5.96" height="5.91"/><rect class="ae" x="990.47" y="372.37" width="5.96" height="5.96"/><rect class="ae" x="990.47" y="289.04" width="5.96" height="5.96"/><rect class="ae" x="990.47" y="277.11" width="5.96" height="5.96"/><rect class="ae" x="984.5" y="378.33" width="5.96" height="5.96"/><rect class="ae" x="984.5" y="283.08" width="5.96" height="5.96"/></g><g><path class="al" d="M1020.23,265.24h-5.96v5.91h5.96v5.96h5.96v-11.87h-5.96Z"/><path class="al" d="M1014.27,360.44v5.96h5.96v5.96h5.96v-11.93h-11.93Z"/><path class="al" d="M1014.27,312.84v5.96h5.96v5.96h5.96v-11.93h-11.93Z"/><path class="al" d="M1008.36,372.37v5.96h11.87v-5.96h-11.87Z"/><path class="al" d="M1008.36,324.77v5.91h11.87v-5.91h-11.87Z"/><path class="al" d="M1008.36,277.11v5.96h11.87v-5.96h-11.87Z"/><path class="al" d="M990.47,366.4v5.96h5.96v-11.93h-5.96v5.96Z"/><path class="al" d="M990.47,318.81v5.96h5.96v-11.93h-5.96v5.96Z"/><path class="al" d="M990.47,271.15v5.96h5.96v-11.87h-5.96v5.91Z"/><path class="al" d="M984.5,390.21v5.96h5.96v-11.87h-5.96v5.91Z"/><path class="al" d="M990.47,348.57v-11.93h-5.96v23.8h5.96v-11.87Z"/><path class="al" d="M984.5,312.84h5.96v-23.8h-5.96v23.8Z"/><path class="al" d="M990.47,253.31h-5.96v11.93h5.96v-11.93Z"/><path class="al" d="M984.5,372.37h-11.87v5.96h11.87v-5.96Z"/><path class="al" d="M978.6,330.68h5.91v-5.91h-11.87v5.91h5.96Z"/><path class="al" d="M978.6,283.08h5.91v-5.96h-11.87v5.96h5.96Z"/><path class="al" d="M966.67,366.4h-5.96v5.96h11.93v-5.96h-5.96Z"/><path class="al" d="M966.67,324.77h5.96v-5.96h-11.93v5.96h5.96Z"/><path class="al" d="M966.67,277.11h5.96v-5.96h-11.93v5.96h5.96Z"/><rect class="al" x="954.74" y="360.44" width="5.96" height="5.96"/><rect class="al" x="954.74" y="312.84" width="5.96" height="5.96"/><rect class="al" x="954.74" y="265.24" width="5.96" height="5.91"/></g><g><path class="aa" d="M1026.2,259.28h-11.93v5.96h11.93v5.91h5.96v-11.87h-5.96Z"/><path class="aa" d="M1020.23,354.53h-5.96v5.91h11.93v5.96h5.96v-11.87h-11.93Z"/><path class="aa" d="M1020.23,306.88h-5.96v5.96h11.93v5.96h5.96v-11.93h-11.93Z"/><path class="aa" d="M1008.36,366.4v5.96h11.87v-5.96h-5.96v-5.96h-5.91v5.96Z"/><path class="aa" d="M1008.36,318.81v5.96h11.87v-5.96h-5.96v-5.96h-5.91v5.96Z"/><path class="aa" d="M1008.36,271.15v5.96h11.87v-5.96h-5.96v-5.91h-5.91v5.91Z"/><path class="aa" d="M996.43,366.4v11.93h5.96v-17.89h-5.96v5.96Z"/><path class="aa" d="M996.43,318.81v11.87h5.96v-17.83h-5.96v5.96Z"/><path class="aa" d="M996.43,271.15v11.93h5.96v-17.83h-5.96v5.91Z"/><rect class="aa" x="990.47" y="390.21" width="5.96" height="5.96"/><path class="aa" d="M996.43,348.57v-5.96h-5.96v17.83h5.96v-11.87Z"/><path class="aa" d="M996.43,300.91v-5.91h-5.96v17.83h5.96v-11.93Z"/><path class="aa" d="M996.43,253.31h-5.96v11.93h5.96v-11.93Z"/><path class="aa" d="M978.6,360.44h-5.96v-5.91h-17.89v5.91h5.96v5.96h11.93v5.96h11.87v-5.96h-5.91v-5.96Z"/><path class="aa" d="M978.6,312.84h-5.96v-5.96h-17.89v5.96h5.96v5.96h11.93v5.96h11.87v-5.96h-5.91v-5.96Z"/><path class="aa" d="M978.6,265.24h-5.96v-5.96h-17.89v5.96h5.96v5.91h11.93v5.96h11.87v-5.96h-5.91v-5.91Z"/></g><g><path class="ah" d="M1032.16,259.28v11.87h-5.96v5.96h-5.96v5.96h-11.87v-17.83h-5.96v23.8h23.8v-5.96h5.96v-5.96h5.96v-17.83h-5.96Z"/><path class="ah" d="M1026.2,354.53h5.96v-5.96h-17.89v5.96h11.93Z"/><path class="ah" d="M1026.2,306.88h5.96v-5.96h-17.89v5.96h11.93Z"/><path class="ah" d="M1026.2,259.28h5.96v-5.96h-17.89v5.96h11.93Z"/><rect class="ah" x="1008.36" y="354.53" width="5.91" height="5.91"/><rect class="ah" x="1008.36" y="306.88" width="5.91" height="5.96"/><rect class="ah" x="1008.36" y="259.28" width="5.91" height="5.96"/><path class="ah" d="M1002.4,372.37v11.93h23.8v-5.96h5.96v-5.96h5.96v-17.83h-5.96v11.87h-5.96v5.96h-5.96v5.96h-11.87v-17.89h-5.96v11.93Z"/><path class="ah" d="M1002.4,324.77v11.87h23.8v-5.96h5.96v-5.91h5.96v-17.89h-5.96v11.93h-5.96v5.96h-5.96v5.91h-11.87v-17.83h-5.96v11.93Z"/><path class="ah" d="M996.43,390.21v5.96h5.96v-11.87h-5.96v5.91Z"/><path class="ah" d="M996.43,342.61v17.83h5.96v-23.8h-5.96v5.96Z"/><path class="ah" d="M996.43,295.01v17.83h5.96v-23.8h-5.96v5.96Z"/><path class="ah" d="M1002.4,253.31h-5.96v11.93h5.96v-11.93Z"/><path class="ah" d="M984.5,259.28v-5.96h-5.91v5.96h-5.96v5.96h5.96v5.91h5.91v11.93h5.96v-17.83h-5.96v-5.96Z"/><path class="ah" d="M972.63,378.33v5.96h5.96v11.87h5.91v-17.84h-11.87Z"/><path class="ah" d="M972.63,330.68v5.96h5.96v17.89h-5.96v5.91h5.96v5.96h5.91v11.93h5.96v-17.89h-5.96v-29.76h-11.87Z"/><path class="ah" d="M972.63,283.08v5.96h5.96v17.83h-5.96v5.96h5.96v5.96h5.91v11.87h5.96v-17.83h-5.96v-29.76h-11.87Z"/><path class="ah" d="M966.67,372.37h-5.96v5.96h11.93v-5.96h-5.96Z"/><path class="ah" d="M966.67,324.77h-5.96v5.91h11.93v-5.91h-5.96Z"/><path class="ah" d="M966.67,277.11h-5.96v5.96h11.93v-5.96h-5.96Z"/><rect class="ah" x="954.74" y="366.4" width="5.96" height="5.96"/><rect class="ah" x="954.74" y="318.81" width="5.96" height="5.96"/><rect class="ah" x="954.74" y="271.15" width="5.96" height="5.96"/><path class="ah" d="M954.74,354.53h17.89v-5.96h-23.8v17.83h5.91v-11.87Z"/><path class="ah" d="M954.74,306.88h17.89v-5.96h-23.8v17.89h5.91v-11.93Z"/><path class="ah" d="M954.74,259.28h17.89v-5.96h-23.8v17.83h5.91v-11.87Z"/></g></g><g id="j"><g><path class="ac" d="M17.72,171.43h-5.91v-5.91H5.91v11.81h11.81v5.91h5.91v-17.72h-5.91v5.91Z"/><path class="ac" d="M76.77,47.42v5.91h5.91v-11.81h-5.91v5.91Z"/><path class="ac" d="M106.29,41.52h-5.91v5.91h5.91v5.91h5.91v-5.91h5.91v-5.91h-11.81Z"/><path class="ac" d="M129.91,41.52v5.91h-5.91v5.91h11.81v-11.81h-5.91Z"/></g><g><rect class="ap" x="23.62" y="141.9" width="5.91" height="5.91"/><rect class="ap" x="17.72" y="147.81" width="5.91" height="5.91"/><rect class="ap" x="11.81" y="153.71" width="5.91" height="5.91"/><polygon class="ap" points="17.72 159.62 17.72 165.52 23.62 165.52 29.53 165.52 29.53 159.62 23.62 159.62 17.72 159.62"/><polygon class="ap" points="35.43 136 29.53 136 29.53 141.9 35.43 141.9 35.43 147.81 35.43 153.71 29.53 153.71 29.53 159.62 35.43 159.62 41.34 159.62 41.34 153.71 47.24 153.71 47.24 147.81 41.34 147.81 41.34 141.9 47.24 141.9 47.24 136 41.34 136 35.43 136"/><rect class="ap" x="82.67" y="147.81" width="5.91" height="5.91"/><rect class="ap" x="76.77" y="141.9" width="5.91" height="5.91"/><polygon class="ap" points="70.86 141.9 76.77 141.9 76.77 136 70.86 136 64.96 136 59.05 136 53.15 136 53.15 141.9 53.15 147.81 59.05 147.81 64.96 147.81 64.96 153.71 70.86 153.71 70.86 147.81 70.86 141.9"/><rect class="ap" x="70.86" y="153.71" width="5.91" height="5.91"/><rect class="ap" x="76.77" y="159.62" width="5.91" height="5.91"/><polygon class="ap" points="100.39 153.71 94.48 153.71 88.58 153.71 88.58 159.62 88.58 165.52 82.67 165.52 82.67 171.43 88.58 171.43 94.48 171.43 100.39 171.43 106.29 171.43 112.2 171.43 112.2 165.52 106.29 165.52 100.39 165.52 100.39 159.62 106.29 159.62 112.2 159.62 112.2 153.71 112.2 147.81 106.29 147.81 106.29 153.71 100.39 153.71"/><polygon class="ap" points="106.29 112.38 100.39 112.38 94.48 112.38 94.48 118.28 100.39 118.28 106.29 118.28 106.29 124.19 100.39 124.19 94.48 124.19 88.58 124.19 88.58 130.09 88.58 136 94.48 136 94.48 141.9 100.39 141.9 100.39 147.81 106.29 147.81 106.29 141.9 106.29 136 106.29 130.09 106.29 124.19 112.2 124.19 112.2 130.09 112.2 136 112.2 141.9 118.1 141.9 118.1 136 118.1 130.09 118.1 124.19 118.1 118.28 118.1 112.38 112.2 112.38 106.29 112.38"/><polygon class="ap" points="88.58 112.38 82.67 112.38 82.67 118.28 82.67 124.19 88.58 124.19 88.58 118.28 88.58 112.38"/><rect class="ap" x="70.86" y="53.33" width="5.91" height="5.91"/><polygon class="ap" points="118.1 53.33 112.2 53.33 106.29 53.33 100.39 53.33 94.48 53.33 88.58 53.33 88.58 47.42 82.67 47.42 82.67 53.33 82.67 59.23 76.77 59.23 76.77 65.14 76.77 71.04 76.77 76.95 70.86 76.95 70.86 71.04 70.86 65.14 70.86 59.23 64.96 59.23 64.96 65.14 64.96 71.04 64.96 76.95 64.96 82.85 70.86 82.85 70.86 88.76 76.77 88.76 76.77 82.85 82.67 82.85 82.67 76.95 82.67 71.04 82.67 65.14 88.58 65.14 88.58 59.23 94.48 59.23 100.39 59.23 106.29 59.23 112.2 59.23 118.1 59.23 124.01 59.23 124.01 53.33 118.1 53.33"/></g><g><rect class="ad" x="11.81" y="159.62" width="5.91" height="5.91"/><path class="ad" d="M29.53,147.81h-5.91v5.91h-5.91v5.91h11.81v-5.91h5.91v-11.81h-5.91v5.91Z"/><path class="ad" d="M47.24,141.9h-5.91v5.91h11.81v-11.81h-5.91v5.91Z"/><path class="ad" d="M82.67,147.81h-5.91v-5.91h-5.91v11.81h5.91v5.91h5.91v5.91h5.91v-11.81h-5.91v-5.91Z"/><path class="ad" d="M112.2,147.81v11.81h-11.81v5.91h17.72v-17.72h-5.91Z"/><path class="ad" d="M112.2,136v-11.81h-5.91v23.62h5.91v-11.81Z"/><path class="ad" d="M100.39,118.28h-5.91v-5.91h-5.91v11.81h17.72v-5.91h-5.91Z"/><path class="ad" d="M70.86,88.76v-5.91h-5.91v11.81h5.91v-5.91Z"/><path class="ad" d="M76.77,71.04v-11.81h-5.91v17.72h5.91v-5.91Z"/><rect class="ad" x="76.77" y="53.33" width="5.91" height="5.91"/><path class="ad" d="M100.39,53.33h5.91v-5.91h-17.72v5.91h11.81Z"/></g><g><rect class="am" x="23.62" y="177.34" width="5.91" height="5.91"/><rect class="am" x="17.72" y="183.24" width="5.91" height="5.91"/><rect class="am" x="11.81" y="177.34" width="5.91" height="5.91"/><rect class="am" x="11.81" y="165.52" width="5.91" height="5.91"/><rect class="am" x="5.91" y="159.62" width="5.91" height="5.91"/><rect class="am" x="70.86" y="47.42" width="5.91" height="5.91"/><path class="am" d="M88.58,41.52h-5.91v5.91h17.72v-5.91h-11.81Z"/><path class="am" d="M118.1,47.42h-5.91v5.91h11.81v-5.91h-5.91Z"/><path class="am" d="M124.01,53.33v5.91h11.81v-5.91h-11.81Z"/><path class="am" d="M135.82,35.61v17.72h5.91v-17.72h-5.91Z"/></g><path class="an" d="M112.2,76.95h-5.91v5.91h11.81v-5.91h-5.91Z"/><polygon class="ab" points="106.29 88.76 100.39 88.76 100.39 94.66 106.29 94.66 112.2 94.66 112.2 88.76 106.29 88.76"/><g><rect class="ah" x="112.2" y="88.76" width="5.91" height="5.91"/><path class="ah" d="M100.39,94.66v-5.91h-5.91v11.81h17.72v-5.91h-11.81Z"/><path class="ah" d="M100.39,71.04v-5.91h-5.91v11.81h5.91v-5.91Z"/><path class="ah" d="M118.1,65.14v11.81h5.91v-11.81h-5.91Z"/></g><g><path class="ao" d="M124.01,71.04h5.91v-11.81h-11.81v5.91h5.91v5.91Z"/><path class="ao" d="M88.58,82.85v5.91h11.81v-11.81h-5.91v5.91h-5.91Z"/><path class="ao" d="M88.58,76.95h5.91v-11.81h5.91v-5.91h-11.81v17.72Z"/><path class="ao" d="M129.91,82.85v-5.91h-11.81v5.91h5.91v5.91h5.91v5.91h5.91v-11.81h-5.91Z"/><rect class="ao" x="124.01" y="130.09" width="5.91" height="5.91"/><rect class="ao" x="118.1" y="159.62" width="5.91" height="5.91"/><path class="ao" d="M118.1,153.71h5.91v-5.91h5.91v-5.91h-11.81v11.81Z"/></g><g><rect class="ai" x="124.01" y="71.04" width="5.91" height="5.91"/><rect class="ai" x="129.91" y="76.95" width="5.91" height="5.91"/><path class="ai" d="M129.91,88.76h-5.91v-5.91h-17.72v-5.91h11.81v-17.72h-17.72v29.53h17.72v5.91h-5.91v5.91h-17.72v-11.81h-5.91v-5.91h5.91v-5.91h-5.91v-11.81h-5.91v17.72h-5.91v5.91h-5.91v5.91h5.91v5.91h5.91v5.91h47.24v-5.91h5.91v-5.91h-5.91v-5.91Z"/><path class="ai" d="M124.01,153.71h-5.91v5.91h5.91v5.91h5.91v-17.72h-5.91v5.91Z"/><path class="ai" d="M118.1,118.28v17.72h5.91v-5.91h5.91v-11.81h-11.81Z"/></g><g><rect class="ag" x="112.2" y="141.9" width="5.91" height="5.91"/><path class="ag" d="M118.1,165.52h-5.91v5.91h17.72v-5.91h-11.81Z"/><path class="ag" d="M100.39,171.43h-17.72v5.91h29.53v-5.91h-11.81Z"/><rect class="ag" x="76.77" y="165.52" width="5.91" height="5.91"/><rect class="ag" x="70.86" y="159.62" width="5.91" height="5.91"/><rect class="ag" x="64.96" y="153.71" width="5.91" height="5.91"/><path class="ag" d="M59.05,147.81h-11.81v5.91h17.72v-5.91h-5.91Z"/><rect class="ag" x="41.34" y="153.71" width="5.91" height="5.91"/><path class="ag" d="M29.53,159.62v5.91h11.81v-5.91h-11.81Z"/><path class="ag" d="M23.62,171.43v5.91h5.91v-11.81h-5.91v5.91Z"/><rect class="ag" x="29.53" y="177.34" width="5.91" height="5.91"/><rect class="ag" x="23.62" y="183.24" width="5.91" height="5.91"/><rect class="ag" x="17.72" y="189.15" width="5.91" height="5.91"/><rect class="ag" x="11.81" y="183.24" width="5.91" height="5.91"/><rect class="ag" x="5.91" y="177.34" width="5.91" height="5.91"/><path class="ag" d="M5.91,165.52v-5.91H0v17.72H5.91v-11.81Z"/><path class="ag" d="M141.72,35.61v17.72h5.91v-17.72h-5.91Z"/><path class="ag" d="M135.82,88.76v11.81h-5.91v5.91h-47.24v-5.91h-5.91v-5.91h-11.81v5.91h5.91v5.91h5.91v23.62H29.53v5.91h47.24v5.91h5.91v5.91h5.91v5.91h17.72v-5.91h-5.91v-5.91h-5.91v-5.91h-5.91v-11.81h-5.91v-11.81h35.43v5.91h11.81v17.72h-11.81v5.91h11.81v23.62h5.91v-59.05h5.91v-29.53h-5.91v11.81Z"/><rect class="ag" x="135.82" y="53.33" width="5.91" height="5.91"/><rect class="ag" x="135.82" y="29.7" width="5.91" height="5.91"/><path class="ag" d="M129.91,65.14v11.81h5.91v-17.72h-5.91v5.91Z"/><path class="ag" d="M124.01,47.42h5.91v-5.91h5.91v-5.91h-11.81v5.91h-5.91v5.91h5.91Z"/><path class="ag" d="M88.58,41.52h29.53v-5.91h-41.34v5.91h11.81Z"/><rect class="ag" x="70.86" y="41.52" width="5.91" height="5.91"/><path class="ag" d="M70.86,53.33v-5.91h-5.91v11.81h5.91v-5.91Z"/><path class="ag" d="M64.96,82.85v-23.62h-5.91v35.43h5.91v-11.81Z"/><rect class="ag" x="23.62" y="136" width="5.91" height="5.91"/><rect class="ag" x="17.72" y="141.9" width="5.91" height="5.91"/><rect class="ag" x="11.81" y="147.81" width="5.91" height="5.91"/><rect class="ag" x="5.91" y="153.71" width="5.91" height="5.91"/></g></g></g><g id="k"/><g id="l"/><g id="m"/><g id="n"/><g id="o"/><g id="p"/><g id="q"/><g id="r"/><g id="s"/><g id="t"/><g id="u"/><g id="v"/><g id="w"/><g id="x"/><g id="y"/><g id="a`"/></svg>